<svg xmlns="http://www.w3.org/2000/svg" xmlns:xlink="http://www.w3.org/1999/xlink" contentStyleType="text/css" height="301px" preserveAspectRatio="none" style="width:1411px;height:301px;background:#FFFFFF;" version="1.1" viewBox="0 0 1411 301" width="1411px" zoomAndPan="magnify"><defs/><g><!--class Course--><g id="elem_Course"><rect codeLine="1" fill="#F1F1F1" height="96.8906" id="Course" rx="2.5" ry="2.5" style="stroke:#181818;stroke-width:0.5;" width="215.8545" x="7" y="164.6"/><ellipse cx="86.2388" cy="180.6" fill="#ADD1B2" rx="11" ry="11" style="stroke:#181818;stroke-width:1.0;"/><path d="M89.2075,186.2406 Q88.6294,186.5375 87.9888,186.6781 Q87.3481,186.8344 86.645,186.8344 Q84.145,186.8344 82.8169,185.1938 Q81.5044,183.5375 81.5044,180.4125 Q81.5044,177.2875 82.8169,175.6313 Q84.145,173.975 86.645,173.975 Q87.3481,173.975 87.9888,174.1313 Q88.645,174.2875 89.2075,174.5844 L89.2075,177.3031 Q88.5825,176.725 87.9888,176.4594 Q87.395,176.1781 86.77,176.1781 Q85.4263,176.1781 84.7388,177.2563 Q84.0513,178.3188 84.0513,180.4125 Q84.0513,182.5063 84.7388,183.5844 Q85.4263,184.6469 86.77,184.6469 Q87.395,184.6469 87.9888,184.3813 Q88.5825,184.1 89.2075,183.5219 L89.2075,186.2406 Z " fill="#000000"/><text fill="#000000" font-family="sans-serif" font-size="14" lengthAdjust="spacing" textLength="48.877" x="106.7388" y="185.4467">Course</text><line style="stroke:#181818;stroke-width:0.5;" x1="8" x2="221.8545" y1="196.6" y2="196.6"/><line style="stroke:#181818;stroke-width:0.5;" x1="8" x2="221.8545" y1="204.6" y2="204.6"/><ellipse cx="18" cy="218.2484" fill="#84BE84" rx="3" ry="3" style="stroke:#038048;stroke-width:1.0;"/><text fill="#000000" font-family="sans-serif" font-size="14" lengthAdjust="spacing" textLength="107.4404" x="27" y="221.5951">getAllCourses()</text><ellipse cx="18" cy="234.5453" fill="#84BE84" rx="3" ry="3" style="stroke:#038048;stroke-width:1.0;"/><text fill="#000000" font-family="sans-serif" font-size="14" lengthAdjust="spacing" textLength="139.0977" x="27" y="237.892">getRecentCourses()</text><ellipse cx="18" cy="250.8422" fill="#84BE84" rx="3" ry="3" style="stroke:#038048;stroke-width:1.0;"/><text fill="#000000" font-family="sans-serif" font-size="14" lengthAdjust="spacing" textLength="189.8545" x="27" y="254.1889">getEachAssignmentScore()</text></g><!--class Assignments--><g id="elem_Assignments"><rect codeLine="7" fill="#F1F1F1" height="162.0781" id="Assignments" rx="2.5" ry="2.5" style="stroke:#181818;stroke-width:0.5;" width="184.6143" x="257.62" y="132"/><ellipse cx="300.9217" cy="148" fill="#ADD1B2" rx="11" ry="11" style="stroke:#181818;stroke-width:1.0;"/><path d="M303.8904,153.6406 Q303.3123,153.9375 302.6717,154.0781 Q302.031,154.2344 301.3279,154.2344 Q298.8279,154.2344 297.4998,152.5937 Q296.1873,150.9375 296.1873,147.8125 Q296.1873,144.6875 297.4998,143.0312 Q298.8279,141.375 301.3279,141.375 Q302.031,141.375 302.6717,141.5312 Q303.3279,141.6875 303.8904,141.9844 L303.8904,144.7031 Q303.2654,144.125 302.6717,143.8594 Q302.0779,143.5781 301.4529,143.5781 Q300.1092,143.5781 299.4217,144.6562 Q298.7342,145.7187 298.7342,147.8125 Q298.7342,149.9062 299.4217,150.9844 Q300.1092,152.0469 301.4529,152.0469 Q302.0779,152.0469 302.6717,151.7812 Q303.2654,151.5 303.8904,150.9219 L303.8904,153.6406 Z " fill="#000000"/><text fill="#000000" font-family="sans-serif" font-size="14" lengthAdjust="spacing" textLength="89.7217" x="321.2109" y="152.8467">Assignments</text><line style="stroke:#181818;stroke-width:0.5;" x1="258.62" x2="441.2343" y1="164" y2="164"/><line style="stroke:#181818;stroke-width:0.5;" x1="258.62" x2="441.2343" y1="172" y2="172"/><ellipse cx="268.62" cy="185.6484" fill="#84BE84" rx="3" ry="3" style="stroke:#038048;stroke-width:1.0;"/><text fill="#000000" font-family="sans-serif" font-size="14" lengthAdjust="spacing" textLength="141.0322" x="277.62" y="188.9951">uploadAssignment()</text><ellipse cx="268.62" cy="201.9453" fill="#84BE84" rx="3" ry="3" style="stroke:#038048;stroke-width:1.0;"/><text fill="#000000" font-family="sans-serif" font-size="14" lengthAdjust="spacing" textLength="143.0625" x="277.62" y="205.292">displayAssignment()</text><ellipse cx="268.62" cy="218.2422" fill="#84BE84" rx="3" ry="3" style="stroke:#038048;stroke-width:1.0;"/><text fill="#000000" font-family="sans-serif" font-size="14" lengthAdjust="spacing" textLength="137.457" x="277.62" y="221.5889">deleteAssignment()</text><ellipse cx="268.62" cy="234.5391" fill="#84BE84" rx="3" ry="3" style="stroke:#038048;stroke-width:1.0;"/><text fill="#000000" font-family="sans-serif" font-size="14" lengthAdjust="spacing" textLength="96.0381" x="277.62" y="237.8857">getDeadline()</text><ellipse cx="268.62" cy="250.8359" fill="#84BE84" rx="3" ry="3" style="stroke:#038048;stroke-width:1.0;"/><text fill="#000000" font-family="sans-serif" font-size="14" lengthAdjust="spacing" textLength="73.4316" x="277.62" y="254.1826">getScore()</text><ellipse cx="268.62" cy="267.1328" fill="#84BE84" rx="3" ry="3" style="stroke:#038048;stroke-width:1.0;"/><text fill="#000000" font-family="sans-serif" font-size="14" lengthAdjust="spacing" textLength="158.6143" x="277.62" y="270.4795">getSubmissionStatus()</text><ellipse cx="268.62" cy="283.4297" fill="#84BE84" rx="3" ry="3" style="stroke:#038048;stroke-width:1.0;"/><text fill="#000000" font-family="sans-serif" font-size="14" lengthAdjust="spacing" textLength="112.1914" x="277.62" y="286.7764">filesSubmitted()</text></g><!--class Chat--><g id="elem_Chat"><rect codeLine="17" fill="#F1F1F1" height="80.5938" id="Chat" rx="2.5" ry="2.5" style="stroke:#181818;stroke-width:0.5;" width="149.751" x="477.05" y="172.74"/><ellipse cx="531.3171" cy="188.74" fill="#ADD1B2" rx="11" ry="11" style="stroke:#181818;stroke-width:1.0;"/><path d="M534.2858,194.3806 Q533.7077,194.6775 533.0671,194.8181 Q532.4265,194.9744 531.7233,194.9744 Q529.2233,194.9744 527.8952,193.3337 Q526.5827,191.6775 526.5827,188.5525 Q526.5827,185.4275 527.8952,183.7712 Q529.2233,182.115 531.7233,182.115 Q532.4265,182.115 533.0671,182.2712 Q533.7233,182.4275 534.2858,182.7244 L534.2858,185.4431 Q533.6608,184.865 533.0671,184.5994 Q532.4733,184.3181 531.8483,184.3181 Q530.5046,184.3181 529.8171,185.3962 Q529.1296,186.4587 529.1296,188.5525 Q529.1296,190.6462 529.8171,191.7244 Q530.5046,192.7869 531.8483,192.7869 Q532.4733,192.7869 533.0671,192.5212 Q533.6608,192.24 534.2858,191.6619 L534.2858,194.3806 Z " fill="#000000"/><text fill="#000000" font-family="sans-serif" font-size="14" lengthAdjust="spacing" textLength="32.7168" x="551.8171" y="193.5867">Chat</text><line style="stroke:#181818;stroke-width:0.5;" x1="478.05" x2="625.801" y1="204.74" y2="204.74"/><line style="stroke:#181818;stroke-width:0.5;" x1="478.05" x2="625.801" y1="212.74" y2="212.74"/><ellipse cx="488.05" cy="226.3884" fill="#84BE84" rx="3" ry="3" style="stroke:#038048;stroke-width:1.0;"/><text fill="#000000" font-family="sans-serif" font-size="14" lengthAdjust="spacing" textLength="105.9502" x="497.05" y="229.7351">sendMessage()</text><ellipse cx="488.05" cy="242.6853" fill="#84BE84" rx="3" ry="3" style="stroke:#038048;stroke-width:1.0;"/><text fill="#000000" font-family="sans-serif" font-size="14" lengthAdjust="spacing" textLength="123.751" x="497.05" y="246.032">receiveMessage()</text></g><!--class PersonalAiTutor--><g id="elem_PersonalAiTutor"><rect codeLine="22" fill="#F1F1F1" height="80.5938" id="PersonalAiTutor" rx="2.5" ry="2.5" style="stroke:#181818;stroke-width:0.5;" width="142.7148" x="661.57" y="172.74"/><ellipse cx="676.57" cy="188.74" fill="#ADD1B2" rx="11" ry="11" style="stroke:#181818;stroke-width:1.0;"/><path d="M679.5388,194.3806 Q678.9606,194.6775 678.32,194.8181 Q677.6794,194.9744 676.9763,194.9744 Q674.4763,194.9744 673.1481,193.3337 Q671.8356,191.6775 671.8356,188.5525 Q671.8356,185.4275 673.1481,183.7712 Q674.4763,182.115 676.9763,182.115 Q677.6794,182.115 678.32,182.2712 Q678.9763,182.4275 679.5388,182.7244 L679.5388,185.4431 Q678.9138,184.865 678.32,184.5994 Q677.7263,184.3181 677.1013,184.3181 Q675.7575,184.3181 675.07,185.3962 Q674.3825,186.4587 674.3825,188.5525 Q674.3825,190.6462 675.07,191.7244 Q675.7575,192.7869 677.1013,192.7869 Q677.7263,192.7869 678.32,192.5212 Q678.9138,192.24 679.5388,191.6619 L679.5388,194.3806 Z " fill="#000000"/><text fill="#000000" font-family="sans-serif" font-size="14" lengthAdjust="spacing" textLength="110.7148" x="690.57" y="193.5867">PersonalAiTutor</text><line style="stroke:#181818;stroke-width:0.5;" x1="662.57" x2="803.2848" y1="204.74" y2="204.74"/><line style="stroke:#181818;stroke-width:0.5;" x1="662.57" x2="803.2848" y1="212.74" y2="212.74"/><ellipse cx="672.57" cy="226.3884" fill="#84BE84" rx="3" ry="3" style="stroke:#038048;stroke-width:1.0;"/><text fill="#000000" font-family="sans-serif" font-size="14" lengthAdjust="spacing" textLength="87.1377" x="681.57" y="229.7351">sendQuery()</text><ellipse cx="672.57" cy="242.6853" fill="#84BE84" rx="3" ry="3" style="stroke:#038048;stroke-width:1.0;"/><text fill="#000000" font-family="sans-serif" font-size="14" lengthAdjust="spacing" textLength="95.2246" x="681.57" y="246.032">queryResult()</text></g><!--class ProfilePage--><g id="elem_ProfilePage"><rect codeLine="27" fill="#F1F1F1" height="96.8906" id="ProfilePage" rx="2.5" ry="2.5" style="stroke:#181818;stroke-width:0.5;" width="193.8086" x="839.02" y="164.6"/><ellipse cx="892.3711" cy="180.6" fill="#ADD1B2" rx="11" ry="11" style="stroke:#181818;stroke-width:1.0;"/><path d="M895.3398,186.2406 Q894.7617,186.5375 894.1211,186.6781 Q893.4804,186.8344 892.7773,186.8344 Q890.2773,186.8344 888.9492,185.1938 Q887.6367,183.5375 887.6367,180.4125 Q887.6367,177.2875 888.9492,175.6313 Q890.2773,173.975 892.7773,173.975 Q893.4804,173.975 894.1211,174.1313 Q894.7773,174.2875 895.3398,174.5844 L895.3398,177.3031 Q894.7148,176.725 894.1211,176.4594 Q893.5273,176.1781 892.9023,176.1781 Q891.5586,176.1781 890.8711,177.2563 Q890.1836,178.3188 890.1836,180.4125 Q890.1836,182.5063 890.8711,183.5844 Q891.5586,184.6469 892.9023,184.6469 Q893.5273,184.6469 894.1211,184.3813 Q894.7148,184.1 895.3398,183.5219 L895.3398,186.2406 Z " fill="#000000"/><text fill="#000000" font-family="sans-serif" font-size="14" lengthAdjust="spacing" textLength="78.6064" x="912.8711" y="185.4467">ProfilePage</text><line style="stroke:#181818;stroke-width:0.5;" x1="840.02" x2="1031.8286" y1="196.6" y2="196.6"/><line style="stroke:#181818;stroke-width:0.5;" x1="840.02" x2="1031.8286" y1="204.6" y2="204.6"/><ellipse cx="850.02" cy="218.2484" fill="#84BE84" rx="3" ry="3" style="stroke:#038048;stroke-width:1.0;"/><text fill="#000000" font-family="sans-serif" font-size="14" lengthAdjust="spacing" textLength="137.5596" x="859.02" y="221.5951">getStudentDetails()</text><ellipse cx="850.02" cy="234.5453" fill="#84BE84" rx="3" ry="3" style="stroke:#038048;stroke-width:1.0;"/><text fill="#000000" font-family="sans-serif" font-size="14" lengthAdjust="spacing" textLength="131.3252" x="859.02" y="237.892">getCourseDetails()</text><ellipse cx="850.02" cy="250.8422" fill="#84BE84" rx="3" ry="3" style="stroke:#038048;stroke-width:1.0;"/><text fill="#000000" font-family="sans-serif" font-size="14" lengthAdjust="spacing" textLength="167.8086" x="859.02" y="254.1889">getTotalOfEachCourse()</text></g><!--class Notification--><g id="elem_Notification"><rect codeLine="33" fill="#F1F1F1" height="80.5938" id="Notification" rx="2.5" ry="2.5" style="stroke:#181818;stroke-width:0.5;" width="160.7295" x="1067.56" y="172.74"/><ellipse cx="1104.3402" cy="188.74" fill="#ADD1B2" rx="11" ry="11" style="stroke:#181818;stroke-width:1.0;"/><path d="M1107.3089,194.3806 Q1106.7308,194.6775 1106.0902,194.8181 Q1105.4496,194.9744 1104.7464,194.9744 Q1102.2464,194.9744 1100.9183,193.3337 Q1099.6058,191.6775 1099.6058,188.5525 Q1099.6058,185.4275 1100.9183,183.7712 Q1102.2464,182.115 1104.7464,182.115 Q1105.4496,182.115 1106.0902,182.2712 Q1106.7464,182.4275 1107.3089,182.7244 L1107.3089,185.4431 Q1106.6839,184.865 1106.0902,184.5994 Q1105.4964,184.3181 1104.8714,184.3181 Q1103.5277,184.3181 1102.8402,185.3962 Q1102.1527,186.4587 1102.1527,188.5525 Q1102.1527,190.6462 1102.8402,191.7244 Q1103.5277,192.7869 1104.8714,192.7869 Q1105.4964,192.7869 1106.0902,192.5212 Q1106.6839,192.24 1107.3089,191.6619 L1107.3089,194.3806 Z " fill="#000000"/><text fill="#000000" font-family="sans-serif" font-size="14" lengthAdjust="spacing" textLength="80.3291" x="1123.1802" y="193.5867">Notification</text><line style="stroke:#181818;stroke-width:0.5;" x1="1068.56" x2="1227.2895" y1="204.74" y2="204.74"/><line style="stroke:#181818;stroke-width:0.5;" x1="1068.56" x2="1227.2895" y1="212.74" y2="212.74"/><ellipse cx="1078.56" cy="226.3884" fill="#84BE84" rx="3" ry="3" style="stroke:#038048;stroke-width:1.0;"/><text fill="#000000" font-family="sans-serif" font-size="14" lengthAdjust="spacing" textLength="132.2139" x="1087.56" y="229.7351">sendNotifications()</text><ellipse cx="1078.56" cy="242.6853" fill="#84BE84" rx="3" ry="3" style="stroke:#038048;stroke-width:1.0;"/><text fill="#000000" font-family="sans-serif" font-size="14" lengthAdjust="spacing" textLength="134.7295" x="1087.56" y="246.032">showNotifications()</text></g><!--class Resources--><g id="elem_Resources"><rect codeLine="38" fill="#F1F1F1" height="64.2969" id="Resources" rx="2.5" ry="2.5" style="stroke:#181818;stroke-width:0.5;" width="141.5957" x="1263.13" y="180.89"/><ellipse cx="1294.8529" cy="196.89" fill="#ADD1B2" rx="11" ry="11" style="stroke:#181818;stroke-width:1.0;"/><path d="M1297.8217,202.5306 Q1297.2436,202.8275 1296.6029,202.9681 Q1295.9623,203.1244 1295.2592,203.1244 Q1292.7592,203.1244 1291.4311,201.4838 Q1290.1186,199.8275 1290.1186,196.7025 Q1290.1186,193.5775 1291.4311,191.9213 Q1292.7592,190.265 1295.2592,190.265 Q1295.9623,190.265 1296.6029,190.4213 Q1297.2592,190.5775 1297.8217,190.8744 L1297.8217,193.5931 Q1297.1967,193.015 1296.6029,192.7494 Q1296.0092,192.4681 1295.3842,192.4681 Q1294.0404,192.4681 1293.3529,193.5463 Q1292.6654,194.6088 1292.6654,196.7025 Q1292.6654,198.7963 1293.3529,199.8744 Q1294.0404,200.9369 1295.3842,200.9369 Q1296.0092,200.9369 1296.6029,200.6713 Q1297.1967,200.39 1297.8217,199.8119 L1297.8217,202.5306 Z " fill="#000000"/><text fill="#000000" font-family="sans-serif" font-size="14" lengthAdjust="spacing" textLength="72.4336" x="1312.5692" y="201.7367">Resources</text><line style="stroke:#181818;stroke-width:0.5;" x1="1264.13" x2="1403.7257" y1="212.89" y2="212.89"/><line style="stroke:#181818;stroke-width:0.5;" x1="1264.13" x2="1403.7257" y1="220.89" y2="220.89"/><ellipse cx="1274.13" cy="234.5384" fill="#84BE84" rx="3" ry="3" style="stroke:#038048;stroke-width:1.0;"/><text fill="#000000" font-family="sans-serif" font-size="14" lengthAdjust="spacing" textLength="115.5957" x="1283.13" y="237.8851">viewResources()</text></g><!--class Student--><g id="elem_Student"><rect codeLine="42" fill="#F1F1F1" height="48" id="Student" rx="2.5" ry="2.5" style="stroke:#181818;stroke-width:0.5;" width="87.1113" x="689.37" y="7"/><ellipse cx="704.37" cy="23" fill="#ADD1B2" rx="11" ry="11" style="stroke:#181818;stroke-width:1.0;"/><path d="M707.3388,28.6406 Q706.7606,28.9375 706.12,29.0781 Q705.4794,29.2344 704.7763,29.2344 Q702.2763,29.2344 700.9481,27.5938 Q699.6356,25.9375 699.6356,22.8125 Q699.6356,19.6875 700.9481,18.0313 Q702.2763,16.375 704.7763,16.375 Q705.4794,16.375 706.12,16.5313 Q706.7763,16.6875 707.3388,16.9844 L707.3388,19.7031 Q706.7138,19.125 706.12,18.8594 Q705.5263,18.5781 704.9013,18.5781 Q703.5575,18.5781 702.87,19.6563 Q702.1825,20.7188 702.1825,22.8125 Q702.1825,24.9063 702.87,25.9844 Q703.5575,27.0469 704.9013,27.0469 Q705.5263,27.0469 706.12,26.7813 Q706.7138,26.5 707.3388,25.9219 L707.3388,28.6406 Z " fill="#000000"/><text fill="#000000" font-family="sans-serif" font-size="14" lengthAdjust="spacing" textLength="55.1113" x="718.37" y="27.8467">Student</text><line style="stroke:#181818;stroke-width:0.5;" x1="690.37" x2="775.4813" y1="39" y2="39"/><line style="stroke:#181818;stroke-width:0.5;" x1="690.37" x2="775.4813" y1="47" y2="47"/></g><!--link Student to Course--><g id="link_Student_Course"><path codeLine="44" d="M689.11,35.28 C601.01,43.05 397.38,67.11 239.93,132 C219.44,140.45 203.6603,149.0105 185.0303,160.9605 " fill="none" id="Student-to-Course" style="stroke:#181818;stroke-width:1.0;"/><polygon fill="#181818" points="179.98,164.2,189.7151,162.7077,184.1886,161.5004,185.3958,155.9739,179.98,164.2" style="stroke:#181818;stroke-width:1.0;"/><text fill="#000000" font-family="sans-serif" font-size="13" lengthAdjust="spacing" textLength="57.2749" x="385.93" y="98.0669">interacts</text></g><!--link Student to Assignments--><g id="link_Student_Assignments"><path codeLine="45" d="M689.17,43.73 C633.81,59.52 536.46,90.49 459.93,132 C454.11,135.15 453.369,135.4339 447.539,139.0239 " fill="none" id="Student-to-Assignments" style="stroke:#181818;stroke-width:1.0;"/><polygon fill="#181818" points="442.43,142.17,452.1909,140.857,446.6875,139.5483,447.9962,134.0449,442.43,142.17" style="stroke:#181818;stroke-width:1.0;"/><text fill="#000000" font-family="sans-serif" font-size="13" lengthAdjust="spacing" textLength="57.2749" x="562.93" y="98.0669">interacts</text></g><!--link Student to Chat--><g id="link_Student_Chat"><path codeLine="46" d="M700.99,55.48 C689.57,64.33 676.84,74.74 665.93,85 C636.67,112.5 610.3213,141.9044 588.3513,167.8044 " fill="none" id="Student-to-Chat" style="stroke:#181818;stroke-width:1.0;"/><polygon fill="#181818" points="584.47,172.38,593.3423,168.1042,587.7044,168.567,587.2415,162.9291,584.47,172.38" style="stroke:#181818;stroke-width:1.0;"/><text fill="#000000" font-family="sans-serif" font-size="13" lengthAdjust="spacing" textLength="57.2749" x="666.93" y="98.0669">interacts</text></g><!--link Student to PersonalAiTutor--><g id="link_Student_PersonalAiTutor"><path codeLine="47" d="M732.93,55.17 C732.93,84.8 732.93,130.57 732.93,166.5 " fill="none" id="Student-to-PersonalAiTutor" style="stroke:#181818;stroke-width:1.0;"/><polygon fill="#181818" points="732.93,172.5,736.93,163.5,732.93,167.5,728.93,163.5,732.93,172.5" style="stroke:#181818;stroke-width:1.0;"/><text fill="#000000" font-family="sans-serif" font-size="13" lengthAdjust="spacing" textLength="57.2749" x="733.93" y="98.0669">interacts</text></g><!--link Student to ProfilePage--><g id="link_Student_ProfilePage"><path codeLine="48" d="M763.71,55.49 C775.24,64.52 788.35,75.04 799.93,85 C829.45,110.39 856.9662,135.881 882.4262,160.141 " fill="none" id="Student-to-ProfilePage" style="stroke:#181818;stroke-width:1.0;"/><polygon fill="#181818" points="886.77,164.28,883.0137,155.1756,883.1502,160.8308,877.495,160.9673,886.77,164.28" style="stroke:#181818;stroke-width:1.0;"/><text fill="#000000" font-family="sans-serif" font-size="13" lengthAdjust="spacing" textLength="57.2749" x="819.93" y="98.0669">interacts</text></g><!--link Student to Notification--><g id="link_Student_Notification"><path codeLine="49" d="M776.78,40.32 C839.94,53.5 958.91,82.84 1049.93,132 C1070.03,142.86 1085.4214,154.1871 1102.0214,168.4671 " fill="none" id="Student-to-Notification" style="stroke:#181818;stroke-width:1.0;"/><polygon fill="#181818" points="1106.57,172.38,1102.3557,163.4783,1102.7795,169.1193,1097.1386,169.5431,1106.57,172.38" style="stroke:#181818;stroke-width:1.0;"/><text fill="#000000" font-family="sans-serif" font-size="13" lengthAdjust="spacing" textLength="57.2749" x="984.93" y="98.0669">interacts</text></g><!--link Student to Resources--><g id="link_Student_Resources"><path codeLine="50" d="M776.94,32.15 C869.33,34.2 1087.98,48.3 1245.93,132 C1268.92,144.19 1286.4435,159.4429 1302.5235,176.1829 " fill="none" id="Student-to-Resources" style="stroke:#181818;stroke-width:1.0;"/><polygon fill="#181818" points="1306.68,180.51,1303.33,171.2484,1303.2163,176.9041,1297.5606,176.7904,1306.68,180.51" style="stroke:#181818;stroke-width:1.0;"/><text fill="#000000" font-family="sans-serif" font-size="13" lengthAdjust="spacing" textLength="57.2749" x="1168.93" y="98.0669">interacts</text></g><!--SRC=[TL91JiCm4Bpd5Jc2K3_00IbgEGAbwGSMUvDOSktYNRUg47_7IMh7QKbEySpix7ZNGWDHkRRU4PO_HHc-fnQvqdh4wE4nWJiKQFWUVmNHLKIgDOV0ry8w3EnlKOZ1VA8eTl17RK5EH3IJYeuQBlyGg97n7W_TDmXIAuCP52Eai_ywg51hJSt0FcLlb4OQI6QKUUPr1np34XhvXaJG9ayN9g5EEA6fS8kEh05TgRrdwtAFJu_k4Xs- -yCEoMkUbJlRXze6rsmRDNiPBhr11gNpoO-xkCVtba5_DFrYHadUuzsoQfG03lF8y-LuCgFEdc-9v1Jo1tU1QQydXUS4vihh3OhY-bEkLY_nrJsNoZ0w44mpEdytIvfXJqlaxIuMTTdGbpIpeIs9fdbaYZy0]--></g></svg>