<svg xmlns="http://www.w3.org/2000/svg" xmlns:xlink="http://www.w3.org/1999/xlink" contentStyleType="text/css" height="691px" preserveAspectRatio="none" style="width:1327px;height:691px;background:#FFFFFF;" version="1.1" viewBox="0 0 1327 691" width="1327px" zoomAndPan="magnify"><defs/><g><!--cluster Components--><g id="cluster_Components"><path d="M322.01,6 L421.5842,6 A3.75,3.75 0 0 1 424.0842,8.5 L431.0842,28.2969 L1032.89,28.2969 A2.5,2.5 0 0 1 1035.39,30.7969 L1035.39,676.5 A2.5,2.5 0 0 1 1032.89,679 L322.01,679 A2.5,2.5 0 0 1 319.51,676.5 L319.51,8.5 A2.5,2.5 0 0 1 322.01,6 " fill="none" style="stroke:#000000;stroke-width:1.5;"/><line style="stroke:#000000;stroke-width:1.5;" x1="319.51" x2="431.0842" y1="28.2969" y2="28.2969"/><text fill="#000000" font-family="sans-serif" font-size="14" font-weight="bold" lengthAdjust="spacing" textLength="98.5742" x="323.51" y="20.9951">Components</text></g><!--cluster Frontend Components--><g id="cluster_Frontend Components"><path d="M8.5,239 L185.1768,239 A3.75,3.75 0 0 1 187.6768,241.5 L194.6768,261.2969 L194.01,261.2969 A2.5,2.5 0 0 1 196.51,263.7969 L196.51,414.5 A2.5,2.5 0 0 1 194.01,417 L8.5,417 A2.5,2.5 0 0 1 6,414.5 L6,241.5 A2.5,2.5 0 0 1 8.5,239 " fill="none" style="stroke:#000000;stroke-width:1.5;"/><line style="stroke:#000000;stroke-width:1.5;" x1="6" x2="194.6768" y1="261.2969" y2="261.2969"/><text fill="#000000" font-family="sans-serif" font-size="14" font-weight="bold" lengthAdjust="spacing" textLength="175.6768" x="10" y="253.9951">Frontend Components</text></g><!--entity StudentService--><g id="elem_StudentService"><rect fill="#F1F1F1" height="46.2969" rx="2.5" ry="2.5" style="stroke:#181818;stroke-width:0.5;" width="151.3027" x="336.3" y="376.85"/><rect fill="#F1F1F1" height="10" style="stroke:#181818;stroke-width:0.5;" width="15" x="467.6027" y="381.85"/><rect fill="#F1F1F1" height="2" style="stroke:#181818;stroke-width:0.5;" width="4" x="465.6027" y="383.85"/><rect fill="#F1F1F1" height="2" style="stroke:#181818;stroke-width:0.5;" width="4" x="465.6027" y="387.85"/><text fill="#000000" font-family="sans-serif" font-size="14" lengthAdjust="spacing" textLength="111.3027" x="351.3" y="409.8451">Student Service</text></g><!--entity TeacherService--><g id="elem_TeacherService"><rect fill="#F1F1F1" height="46.2969" rx="2.5" ry="2.5" style="stroke:#181818;stroke-width:0.5;" width="152.875" x="335.51" y="250.85"/><rect fill="#F1F1F1" height="10" style="stroke:#181818;stroke-width:0.5;" width="15" x="468.385" y="255.85"/><rect fill="#F1F1F1" height="2" style="stroke:#181818;stroke-width:0.5;" width="4" x="466.385" y="257.85"/><rect fill="#F1F1F1" height="2" style="stroke:#181818;stroke-width:0.5;" width="4" x="466.385" y="261.85"/><text fill="#000000" font-family="sans-serif" font-size="14" lengthAdjust="spacing" textLength="112.875" x="350.51" y="283.8451">Teacher Service</text></g><!--entity AssignmentService--><g id="elem_AssignmentService"><rect fill="#F1F1F1" height="46.2969" rx="2.5" ry="2.5" style="stroke:#181818;stroke-width:0.5;" width="178.6191" x="801.08" y="210.85"/><rect fill="#F1F1F1" height="10" style="stroke:#181818;stroke-width:0.5;" width="15" x="959.6991" y="215.85"/><rect fill="#F1F1F1" height="2" style="stroke:#181818;stroke-width:0.5;" width="4" x="957.6991" y="217.85"/><rect fill="#F1F1F1" height="2" style="stroke:#181818;stroke-width:0.5;" width="4" x="957.6991" y="221.85"/><text fill="#000000" font-family="sans-serif" font-size="14" lengthAdjust="spacing" textLength="138.6191" x="816.08" y="243.8451">Assignment Service</text></g><!--entity ChatService--><g id="elem_ChatService"><rect fill="#F1F1F1" height="46.2969" rx="2.5" ry="2.5" style="stroke:#181818;stroke-width:0.5;" width="128.9082" x="825.93" y="372.85"/><rect fill="#F1F1F1" height="10" style="stroke:#181818;stroke-width:0.5;" width="15" x="934.8382" y="377.85"/><rect fill="#F1F1F1" height="2" style="stroke:#181818;stroke-width:0.5;" width="4" x="932.8382" y="379.85"/><rect fill="#F1F1F1" height="2" style="stroke:#181818;stroke-width:0.5;" width="4" x="932.8382" y="383.85"/><text fill="#000000" font-family="sans-serif" font-size="14" lengthAdjust="spacing" textLength="88.9082" x="840.93" y="405.8451">Chat Service</text></g><!--entity NotificationService--><g id="elem_NotificationService"><rect fill="#F1F1F1" height="46.2969" rx="2.5" ry="2.5" style="stroke:#181818;stroke-width:0.5;" width="176.5205" x="802.13" y="453.85"/><rect fill="#F1F1F1" height="10" style="stroke:#181818;stroke-width:0.5;" width="15" x="958.6505" y="458.85"/><rect fill="#F1F1F1" height="2" style="stroke:#181818;stroke-width:0.5;" width="4" x="956.6505" y="460.85"/><rect fill="#F1F1F1" height="2" style="stroke:#181818;stroke-width:0.5;" width="4" x="956.6505" y="464.85"/><text fill="#000000" font-family="sans-serif" font-size="14" lengthAdjust="spacing" textLength="136.5205" x="817.13" y="486.8451">Notification Service</text></g><!--entity ResourceService--><g id="elem_ResourceService"><rect fill="#F1F1F1" height="46.2969" rx="2.5" ry="2.5" style="stroke:#181818;stroke-width:0.5;" width="258.0049" x="761.38" y="129.85"/><rect fill="#F1F1F1" height="10" style="stroke:#181818;stroke-width:0.5;" width="15" x="999.3849" y="134.85"/><rect fill="#F1F1F1" height="2" style="stroke:#181818;stroke-width:0.5;" width="4" x="997.3849" y="136.85"/><rect fill="#F1F1F1" height="2" style="stroke:#181818;stroke-width:0.5;" width="4" x="997.3849" y="140.85"/><text fill="#000000" font-family="sans-serif" font-size="14" lengthAdjust="spacing" textLength="218.0049" x="776.38" y="162.8451">Resource Management Service</text></g><!--entity VisualizationService--><g id="elem_VisualizationService"><rect fill="#F1F1F1" height="46.2969" rx="2.5" ry="2.5" style="stroke:#181818;stroke-width:0.5;" width="184.9287" x="797.92" y="291.85"/><rect fill="#F1F1F1" height="10" style="stroke:#181818;stroke-width:0.5;" width="15" x="962.8487" y="296.85"/><rect fill="#F1F1F1" height="2" style="stroke:#181818;stroke-width:0.5;" width="4" x="960.8487" y="298.85"/><rect fill="#F1F1F1" height="2" style="stroke:#181818;stroke-width:0.5;" width="4" x="960.8487" y="302.85"/><text fill="#000000" font-family="sans-serif" font-size="14" lengthAdjust="spacing" textLength="144.9287" x="812.92" y="324.8451">Visualization Service</text></g><!--entity AITutorService--><g id="elem_AITutorService"><rect fill="#F1F1F1" height="46.2969" rx="2.5" ry="2.5" style="stroke:#181818;stroke-width:0.5;" width="159.8545" x="810.46" y="604.85"/><rect fill="#F1F1F1" height="10" style="stroke:#181818;stroke-width:0.5;" width="15" x="950.3145" y="609.85"/><rect fill="#F1F1F1" height="2" style="stroke:#181818;stroke-width:0.5;" width="4" x="948.3145" y="611.85"/><rect fill="#F1F1F1" height="2" style="stroke:#181818;stroke-width:0.5;" width="4" x="948.3145" y="615.85"/><text fill="#000000" font-family="sans-serif" font-size="14" lengthAdjust="spacing" textLength="119.8545" x="825.46" y="637.8451">Personal AI Tutor</text></g><!--entity StudentUI--><g id="elem_StudentUI"><rect fill="#F1F1F1" height="46.2969" rx="2.5" ry="2.5" style="stroke:#181818;stroke-width:0.5;" width="113.9375" x="43.79" y="354.85"/><rect fill="#F1F1F1" height="10" style="stroke:#181818;stroke-width:0.5;" width="15" x="137.7275" y="359.85"/><rect fill="#F1F1F1" height="2" style="stroke:#181818;stroke-width:0.5;" width="4" x="135.7275" y="361.85"/><rect fill="#F1F1F1" height="2" style="stroke:#181818;stroke-width:0.5;" width="4" x="135.7275" y="365.85"/><text fill="#000000" font-family="sans-serif" font-size="14" lengthAdjust="spacing" textLength="73.9375" x="58.79" y="387.8451">Student UI</text></g><!--entity TeacherUI--><g id="elem_TeacherUI"><rect fill="#F1F1F1" height="46.2969" rx="2.5" ry="2.5" style="stroke:#181818;stroke-width:0.5;" width="115.5098" x="43" y="273.85"/><rect fill="#F1F1F1" height="10" style="stroke:#181818;stroke-width:0.5;" width="15" x="138.5098" y="278.85"/><rect fill="#F1F1F1" height="2" style="stroke:#181818;stroke-width:0.5;" width="4" x="136.5098" y="280.85"/><rect fill="#F1F1F1" height="2" style="stroke:#181818;stroke-width:0.5;" width="4" x="136.5098" y="284.85"/><text fill="#000000" font-family="sans-serif" font-size="14" lengthAdjust="spacing" textLength="75.5098" x="58" y="306.8451">Teacher UI</text></g><!--entity Database--><g id="elem_Database"><ellipse cx="1287.39" cy="315" fill="#F1F1F1" rx="8" ry="8" style="stroke:#181818;stroke-width:0.5;"/><text fill="#000000" font-family="sans-serif" font-size="14" lengthAdjust="spacing" textLength="66.8008" x="1253.9896" y="344.9951">Database</text></g><!--link StudentUI to StudentService--><g id="link_StudentUI_StudentService"><path d="M158.11,382.01 C208.01,385.56 275.2451,390.3442 330.0651,394.2442 " fill="none" id="StudentUI-to-StudentService" style="stroke:#181818;stroke-width:1.0;"/><polygon fill="#181818" points="336.05,394.67,327.3565,390.0414,331.0626,394.3152,326.7888,398.0213,336.05,394.67" style="stroke:#181818;stroke-width:1.0;"/><text fill="#000000" font-family="sans-serif" font-size="13" lengthAdjust="spacing" textLength="89.21" x="213.51" y="383.0669">Interacts with</text></g><!--link TeacherUI to TeacherService--><g id="link_TeacherUI_TeacherService"><path d="M158.83,292.75 C208.47,289.06 274.8065,284.125 329.2665,280.075 " fill="none" id="TeacherUI-to-TeacherService" style="stroke:#181818;stroke-width:1.0;"/><polygon fill="#181818" points="335.25,279.63,325.9781,276.3085,330.2638,280.0008,326.5714,284.2864,335.25,279.63" style="stroke:#181818;stroke-width:1.0;"/><text fill="#000000" font-family="sans-serif" font-size="13" lengthAdjust="spacing" textLength="89.21" x="213.51" y="279.0669">Interacts with</text></g><!--link StudentService to AssignmentService--><g id="link_StudentService_AssignmentService"><path d="M438.61,376.45 C458.78,359.33 488.39,337.11 518.38,325 C607.15,289.16 641.69,326.44 731.38,293 C746.17,287.49 747.06,280.63 761.38,274 C774.48,267.93 783.0718,264.3984 797.1618,259.5884 " fill="none" id="StudentService-to-AssignmentService" style="stroke:#181818;stroke-width:1.0;"/><polygon fill="#181818" points="802.84,257.65,793.0303,256.7721,798.1081,259.2654,795.6149,264.3431,802.84,257.65" style="stroke:#181818;stroke-width:1.0;"/><text fill="#000000" font-family="sans-serif" font-size="13" lengthAdjust="spacing" textLength="145.8564" x="552.38" y="289.0669">Manages Assignments</text></g><!--link StudentService to ChatService--><g id="link_StudentService_ChatService"><path d="M425.67,423.35 C442.59,451.64 475.42,497.88 518.38,517 C604.88,555.49 653.69,571.08 731.38,517 C762.89,495.07 733.54,462.43 761.38,436 C778.78,419.49 797.0719,411.2561 819.6919,405.5561 " fill="none" id="StudentService-to-ChatService" style="stroke:#181818;stroke-width:1.0;"/><polygon fill="#181818" points="825.51,404.09,815.8054,402.4104,820.6616,405.3118,817.7602,410.1679,825.51,404.09" style="stroke:#181818;stroke-width:1.0;"/><text fill="#000000" font-family="sans-serif" font-size="13" lengthAdjust="spacing" textLength="201.0811" x="524.38" y="513.0669">Chats with Peers and Teachers</text></g><!--link StudentService to NotificationService--><g id="link_StudentService_NotificationService"><path d="M418.85,423.48 C430.31,463.47 459.77,543.69 518.38,577 C600.69,623.77 640.46,603.36 731.38,577 C782.68,562.13 828.6721,528.9108 858.3021,504.3308 " fill="none" id="StudentService-to-NotificationService" style="stroke:#181818;stroke-width:1.0;"/><polygon fill="#181818" points="862.92,500.5,853.4393,503.1677,859.0718,503.6924,858.5471,509.3248,862.92,500.5" style="stroke:#181818;stroke-width:1.0;"/><text fill="#000000" font-family="sans-serif" font-size="13" lengthAdjust="spacing" textLength="143.749" x="553.38" y="573.0669">Receives Notifications</text></g><!--link StudentService to ResourceService--><g id="link_StudentService_ResourceService"><path d="M437.94,376.59 C454.02,360.48 474.44,337.92 488.38,315 C507.69,283.27 490.29,261.3 518.38,237 C537.15,220.77 655.784,195.7725 755.474,176.9625 " fill="none" id="StudentService-to-ResourceService" style="stroke:#181818;stroke-width:1.0;"/><polygon fill="#181818" points="761.37,175.85,751.7844,173.5881,756.4567,176.7771,753.2677,181.4494,761.37,175.85" style="stroke:#181818;stroke-width:1.0;"/><text fill="#000000" font-family="sans-serif" font-size="13" lengthAdjust="spacing" textLength="130.895" x="559.88" y="179.0669">Accesses Resources</text></g><!--link StudentService to AITutorService--><g id="link_StudentService_AITutorService"><path d="M415.6,423.47 C422.48,471.96 445.78,582.5 518.38,629 C605.71,684.93 724.0967,671.4722 804.2667,652.7822 " fill="none" id="StudentService-to-AITutorService" style="stroke:#181818;stroke-width:1.0;"/><polygon fill="#181818" points="810.11,651.42,800.4369,649.5678,805.2406,652.5552,802.2532,657.3589,810.11,651.42" style="stroke:#181818;stroke-width:1.0;"/><text fill="#000000" font-family="sans-serif" font-size="13" lengthAdjust="spacing" textLength="86.6265" x="581.88" y="625.0669">Uses AI Tutor</text></g><!--link StudentService to VisualizationService--><g id="link_StudentService_VisualizationService"><path d="M487.86,420.5 C555.83,434.71 656.55,444.47 731.38,403 C753.39,390.8 741.47,370.38 761.38,355 C772.17,346.68 779.1408,342.3272 792.0708,337.0772 " fill="none" id="StudentService-to-VisualizationService" style="stroke:#181818;stroke-width:1.0;"/><polygon fill="#181818" points="797.63,334.82,787.7864,334.4997,792.9973,336.701,790.796,341.912,797.63,334.82" style="stroke:#181818;stroke-width:1.0;"/><text fill="#000000" font-family="sans-serif" font-size="13" lengthAdjust="spacing" textLength="211.6436" x="519.38" y="399.0669">Views Performance Visualization</text></g><!--link TeacherService to AssignmentService--><g id="link_TeacherService_AssignmentService"><path d="M425.23,250.57 C441.89,221.63 474.67,173.78 518.38,154 C604.63,114.97 646.71,111.66 731.38,154 C751.26,163.94 743.24,181.18 761.38,194 C773.17,202.33 781.1551,206.8286 794.9751,212.1086 " fill="none" id="TeacherService-to-AssignmentService" style="stroke:#181818;stroke-width:1.0;"/><polygon fill="#181818" points="800.58,214.25,793.6003,207.3014,795.9093,212.4655,790.7451,214.7745,800.58,214.25" style="stroke:#181818;stroke-width:1.0;"/><text fill="#000000" font-family="sans-serif" font-size="13" lengthAdjust="spacing" textLength="145.8564" x="552.38" y="120.0669">Manages Assignments</text></g><!--link TeacherService to ChatService--><g id="link_TeacherService_ChatService"><path d="M439.57,297.41 C459.77,313.8 489,334.72 518.38,346 C546.41,356.76 721.2472,377.3633 819.7172,388.3733 " fill="none" id="TeacherService-to-ChatService" style="stroke:#181818;stroke-width:1.0;"/><polygon fill="#181818" points="825.68,389.04,817.1802,384.0647,820.711,388.4844,816.2913,392.0152,825.68,389.04" style="stroke:#181818;stroke-width:1.0;"/><text fill="#000000" font-family="sans-serif" font-size="13" lengthAdjust="spacing" textLength="130.9458" x="559.88" y="342.0669">Chats with Students</text></g><!--link TeacherService to NotificationService--><g id="link_TeacherService_NotificationService"><path d="M438.86,297.44 C455.11,313.39 475.38,335.75 488.38,359 C510.83,399.12 482.17,429.67 518.38,458 C560.86,491.23 700.1997,489.4907 795.8597,484.0507 " fill="none" id="TeacherService-to-NotificationService" style="stroke:#181818;stroke-width:1.0;"/><polygon fill="#181818" points="801.85,483.71,792.6374,480.2274,796.8581,483.9939,793.0916,488.2145,801.85,483.71" style="stroke:#181818;stroke-width:1.0;"/><text fill="#000000" font-family="sans-serif" font-size="13" lengthAdjust="spacing" textLength="125.0107" x="562.38" y="454.0669">Sends Notifications</text></g><!--link TeacherService to ResourceService--><g id="link_TeacherService_ResourceService"><path d="M419.02,250.46 C430.68,210.8 460.33,131.8 518.38,99 C623.51,39.61 765.6603,92.0658 838.9703,126.8858 " fill="none" id="TeacherService-to-ResourceService" style="stroke:#181818;stroke-width:1.0;"/><polygon fill="#181818" points="844.39,129.46,837.9765,121.9855,839.8736,127.3148,834.5443,129.2118,844.39,129.46" style="stroke:#181818;stroke-width:1.0;"/><text fill="#000000" font-family="sans-serif" font-size="13" lengthAdjust="spacing" textLength="129.8032" x="560.38" y="69.0669">Manages Resources</text></g><!--link TeacherService to VisualizationService--><g id="link_TeacherService_VisualizationService"><path d="M488.66,269.17 C498.65,268.69 508.76,268.27 518.38,268 C613.01,265.31 637.71,254.36 731.38,268 C740.16,269.28 771.7726,278.5945 807.9526,289.6645 " fill="none" id="TeacherService-to-VisualizationService" style="stroke:#181818;stroke-width:1.0;"/><polygon fill="#181818" points="813.69,291.42,806.2542,284.9618,808.9088,289.9571,803.9135,292.6117,813.69,291.42" style="stroke:#181818;stroke-width:1.0;"/><text fill="#000000" font-family="sans-serif" font-size="13" lengthAdjust="spacing" textLength="206.813" x="521.88" y="258.0669">Visualizes Student Performance</text></g><!--link AssignmentService to Database--><g id="link_AssignmentService_Database"><path d="M979.86,245.04 C1045.71,254.27 1137.48,269.28 1216.39,290 C1239.6,296.1 1260.4938,304.2409 1273.2138,309.4909 " fill="none" id="AssignmentService-to-Database" style="stroke:#181818;stroke-width:1.0;"/><polygon fill="#181818" points="1278.76,311.78,1271.9668,304.6489,1274.1382,309.8724,1268.9147,312.0438,1278.76,311.78" style="stroke:#181818;stroke-width:1.0;"/><text fill="#000000" font-family="sans-serif" font-size="13" lengthAdjust="spacing" textLength="157.2632" x="1055.39" y="253.0669">Stores Assignment Data</text></g><!--link ChatService to Database--><g id="link_ChatService_Database"><path d="M955.3,388.3 C1021.34,379.58 1127.09,363.45 1216.39,340 C1239.6,333.9 1260.4938,325.7591 1273.2138,320.5091 " fill="none" id="ChatService-to-Database" style="stroke:#181818;stroke-width:1.0;"/><polygon fill="#181818" points="1278.76,318.22,1268.9147,317.9562,1274.1382,320.1276,1271.9668,325.3511,1278.76,318.22" style="stroke:#181818;stroke-width:1.0;"/><text fill="#000000" font-family="sans-serif" font-size="13" lengthAdjust="spacing" textLength="111.103" x="1078.39" y="336.0669">Stores Chat Data</text></g><!--link NotificationService to Database--><g id="link_NotificationService_Database"><path d="M978.92,471.06 C1047.85,462.98 1144.05,443.93 1216.39,399 C1247.67,379.57 1268.7849,346.5718 1278.6149,329.2018 " fill="none" id="NotificationService-to-Database" style="stroke:#181818;stroke-width:1.0;"/><polygon fill="#181818" points="1281.57,323.98,1273.6561,329.8426,1279.1074,328.3315,1280.6185,333.7828,1281.57,323.98" style="stroke:#181818;stroke-width:1.0;"/><text fill="#000000" font-family="sans-serif" font-size="13" lengthAdjust="spacing" textLength="155.3145" x="1056.39" y="395.0669">Stores Notification Data</text></g><!--link ResourceService to Database--><g id="link_ResourceService_Database"><path d="M1019.73,165.28 C1082.65,175.84 1157.39,195.48 1216.39,232 C1247.48,251.25 1268.6549,283.791 1278.5349,300.941 " fill="none" id="ResourceService-to-Database" style="stroke:#181818;stroke-width:1.0;"/><polygon fill="#181818" points="1281.53,306.14,1280.5033,296.3448,1279.0341,301.8075,1273.5714,300.3383,1281.53,306.14" style="stroke:#181818;stroke-width:1.0;"/><text fill="#000000" font-family="sans-serif" font-size="13" lengthAdjust="spacing" textLength="141.21" x="1063.39" y="169.0669">Stores Resource Data</text></g><!--link VisualizationService to Database--><g id="link_VisualizationService_Database"><path d="M983,315 C1085.56,315 1236.2,315 1272.63,315 " fill="none" id="VisualizationService-to-Database" style="stroke:#181818;stroke-width:1.0;"/><polygon fill="#181818" points="1278.63,315,1269.63,311,1273.63,315,1269.63,319,1278.63,315" style="stroke:#181818;stroke-width:1.0;"/><text fill="#000000" font-family="sans-serif" font-size="13" lengthAdjust="spacing" textLength="163.7949" x="1052.39" y="311.0669">Stores Performance Data</text></g><!--SRC=[bPJBJiCm44Nt_eeH-_u02wIg22aBKDNN1h4mxhIrQEtATbe9nBypSHxD9DC5MIKpz_Xnh-CZxX8a3y7k3mcsDg19rZkbpjfywJt2myoVpjwXI_41VfG2UjwNgTnI1POOBjRW1-W8JQqfrReLQdF0m7HDZUccCTgzEms7l9MPUdRGN5SLcEBD9xkpHbTROSf-Wn4BZBuC1k5LEzhsQ2bjdq4R6qjzjD_ZULY7CNCCqJjzX6a1gpBvKE-qoE-jKlts0dW9tYLqM-19i23MHJ-3TS7jRxhD9tLf-4uAaydJ83nuX8Ac3Dga25UR3gf3ivf7E5QhmN0LCygIiDhhVivHGdln4bHzrVF07CbCq6HDio8H5pAdOHPeq5wG7mcH7qHFxDGOZ15lfqBaUAQ4hIkaZLqYf5D3tCRYDT9cmyw7atPKOqAb1ddynsu1lMjtis8HaarUqh4TEYp0OuVRfTuC5h2xTjLbxFw7ldTAZQsf1dlMIN_gc5TDyJ2RSbFrVP69V35bhMI7pB2hAhD3DsIkkx0o8reXW_rpL7N_0000]--></g></svg>