<svg xmlns="http://www.w3.org/2000/svg" xmlns:xlink="http://www.w3.org/1999/xlink" contentStyleType="text/css" height="2287px" preserveAspectRatio="none" style="width:1154px;height:2287px;background:#FFFFFF;" version="1.1" viewBox="0 0 1154 2287" width="1154px" zoomAndPan="magnify"><defs/><g><line style="stroke:#181818;stroke-width:0.5;stroke-dasharray:5.0,5.0;" x1="35" x2="35" y1="81.2969" y2="2207.1953"/><line style="stroke:#181818;stroke-width:0.5;stroke-dasharray:5.0,5.0;" x1="107.1113" x2="107.1113" y1="81.2969" y2="2207.1953"/><line style="stroke:#181818;stroke-width:0.5;stroke-dasharray:5.0,5.0;" x1="319.0562" x2="319.0562" y1="81.2969" y2="2207.1953"/><line style="stroke:#181818;stroke-width:0.5;stroke-dasharray:5.0,5.0;" x1="456.8501" x2="456.8501" y1="81.2969" y2="2207.1953"/><line style="stroke:#181818;stroke-width:0.5;stroke-dasharray:5.0,5.0;" x1="578.4741" x2="578.4741" y1="81.2969" y2="2207.1953"/><line style="stroke:#181818;stroke-width:0.5;stroke-dasharray:5.0,5.0;" x1="743.4282" x2="743.4282" y1="81.2969" y2="2207.1953"/><line style="stroke:#181818;stroke-width:0.5;stroke-dasharray:5.0,5.0;" x1="918.4448" x2="918.4448" y1="81.2969" y2="2207.1953"/><line style="stroke:#181818;stroke-width:0.5;stroke-dasharray:5.0,5.0;" x1="1071.98" x2="1071.98" y1="81.2969" y2="2207.1953"/><text fill="#000000" font-family="sans-serif" font-size="14" lengthAdjust="spacing" textLength="55.1113" x="5" y="77.9951">Student</text><ellipse cx="35.5557" cy="13.5" fill="#E2E2F0" rx="8" ry="8" style="stroke:#181818;stroke-width:0.5;"/><path d="M35.5557,21.5 L35.5557,48.5 M22.5557,29.5 L48.5557,29.5 M35.5557,48.5 L22.5557,63.5 M35.5557,48.5 L48.5557,63.5 " fill="none" style="stroke:#181818;stroke-width:0.5;"/><text fill="#000000" font-family="sans-serif" font-size="14" lengthAdjust="spacing" textLength="55.1113" x="5" y="2219.1904">Student</text><ellipse cx="35.5557" cy="2230.9922" fill="#E2E2F0" rx="8" ry="8" style="stroke:#181818;stroke-width:0.5;"/><path d="M35.5557,2238.9922 L35.5557,2265.9922 M22.5557,2246.9922 L48.5557,2246.9922 M35.5557,2265.9922 L22.5557,2280.9922 M35.5557,2265.9922 L48.5557,2280.9922 " fill="none" style="stroke:#181818;stroke-width:0.5;"/><text fill="#000000" font-family="sans-serif" font-size="14" lengthAdjust="spacing" textLength="56.6836" x="76.1113" y="77.9951">Teacher</text><ellipse cx="107.4531" cy="13.5" fill="#E2E2F0" rx="8" ry="8" style="stroke:#181818;stroke-width:0.5;"/><path d="M107.4531,21.5 L107.4531,48.5 M94.4531,29.5 L120.4531,29.5 M107.4531,48.5 L94.4531,63.5 M107.4531,48.5 L120.4531,63.5 " fill="none" style="stroke:#181818;stroke-width:0.5;"/><text fill="#000000" font-family="sans-serif" font-size="14" lengthAdjust="spacing" textLength="56.6836" x="76.1113" y="2219.1904">Teacher</text><ellipse cx="107.4531" cy="2230.9922" fill="#E2E2F0" rx="8" ry="8" style="stroke:#181818;stroke-width:0.5;"/><path d="M107.4531,2238.9922 L107.4531,2265.9922 M94.4531,2246.9922 L120.4531,2246.9922 M107.4531,2265.9922 L94.4531,2280.9922 M107.4531,2265.9922 L120.4531,2280.9922 " fill="none" style="stroke:#181818;stroke-width:0.5;"/><rect fill="#E2E2F0" height="30.2969" rx="2.5" ry="2.5" style="stroke:#181818;stroke-width:0.5;" width="157.7939" x="241.0562" y="50"/><text fill="#000000" font-family="sans-serif" font-size="14" lengthAdjust="spacing" textLength="143.7939" x="248.0562" y="69.9951">AssignmentManager</text><rect fill="#E2E2F0" height="30.2969" rx="2.5" ry="2.5" style="stroke:#181818;stroke-width:0.5;" width="157.7939" x="241.0562" y="2206.1953"/><text fill="#000000" font-family="sans-serif" font-size="14" lengthAdjust="spacing" textLength="143.7939" x="248.0562" y="2226.1904">AssignmentManager</text><rect fill="#E2E2F0" height="30.2969" rx="2.5" ry="2.5" style="stroke:#181818;stroke-width:0.5;" width="97.624" x="408.8501" y="50"/><text fill="#000000" font-family="sans-serif" font-size="14" lengthAdjust="spacing" textLength="83.624" x="415.8501" y="69.9951">ChatModule</text><rect fill="#E2E2F0" height="30.2969" rx="2.5" ry="2.5" style="stroke:#181818;stroke-width:0.5;" width="97.624" x="408.8501" y="2206.1953"/><text fill="#000000" font-family="sans-serif" font-size="14" lengthAdjust="spacing" textLength="83.624" x="415.8501" y="2226.1904">ChatModule</text><rect fill="#E2E2F0" height="30.2969" rx="2.5" ry="2.5" style="stroke:#181818;stroke-width:0.5;" width="124.9541" x="516.4741" y="50"/><text fill="#000000" font-family="sans-serif" font-size="14" lengthAdjust="spacing" textLength="110.9541" x="523.4741" y="69.9951">PersonalAITutor</text><rect fill="#E2E2F0" height="30.2969" rx="2.5" ry="2.5" style="stroke:#181818;stroke-width:0.5;" width="124.9541" x="516.4741" y="2206.1953"/><text fill="#000000" font-family="sans-serif" font-size="14" lengthAdjust="spacing" textLength="110.9541" x="523.4741" y="2226.1904">PersonalAITutor</text><rect fill="#E2E2F0" height="30.2969" rx="2.5" ry="2.5" style="stroke:#181818;stroke-width:0.5;" width="184.0166" x="651.4282" y="50"/><text fill="#000000" font-family="sans-serif" font-size="14" lengthAdjust="spacing" textLength="170.0166" x="658.4282" y="69.9951">VisualizationComponent</text><rect fill="#E2E2F0" height="30.2969" rx="2.5" ry="2.5" style="stroke:#181818;stroke-width:0.5;" width="184.0166" x="651.4282" y="2206.1953"/><text fill="#000000" font-family="sans-serif" font-size="14" lengthAdjust="spacing" textLength="170.0166" x="658.4282" y="2226.1904">VisualizationComponent</text><rect fill="#E2E2F0" height="30.2969" rx="2.5" ry="2.5" style="stroke:#181818;stroke-width:0.5;" width="146.5352" x="845.4448" y="50"/><text fill="#000000" font-family="sans-serif" font-size="14" lengthAdjust="spacing" textLength="132.5352" x="852.4448" y="69.9951">NotificationSystem</text><rect fill="#E2E2F0" height="30.2969" rx="2.5" ry="2.5" style="stroke:#181818;stroke-width:0.5;" width="146.5352" x="845.4448" y="2206.1953"/><text fill="#000000" font-family="sans-serif" font-size="14" lengthAdjust="spacing" textLength="132.5352" x="852.4448" y="2226.1904">NotificationSystem</text><rect fill="#E2E2F0" height="30.2969" rx="2.5" ry="2.5" style="stroke:#181818;stroke-width:0.5;" width="140.5059" x="1001.98" y="50"/><text fill="#000000" font-family="sans-serif" font-size="14" lengthAdjust="spacing" textLength="126.5059" x="1008.98" y="69.9951">ResourceManager</text><rect fill="#E2E2F0" height="30.2969" rx="2.5" ry="2.5" style="stroke:#181818;stroke-width:0.5;" width="140.5059" x="1001.98" y="2206.1953"/><text fill="#000000" font-family="sans-serif" font-size="14" lengthAdjust="spacing" textLength="126.5059" x="1008.98" y="2226.1904">ResourceManager</text><rect fill="#EEEEEE" height="3" style="stroke:#EEEEEE;stroke-width:1.0;" width="1147.4858" x="0" y="111.8633"/><line style="stroke:#000000;stroke-width:1.0;" x1="0" x2="1147.4858" y1="111.8633" y2="111.8633"/><line style="stroke:#000000;stroke-width:1.0;" x1="0" x2="1147.4858" y1="114.8633" y2="114.8633"/><rect fill="#EEEEEE" height="23.1328" style="stroke:#000000;stroke-width:2.0;" width="257.3818" x="445.052" y="101.2969"/><text fill="#000000" font-family="sans-serif" font-size="13" font-weight="bold" lengthAdjust="spacing" textLength="238.856" x="451.052" y="117.3638">Student: Managing Assignments</text><polygon fill="#181818" points="307.9531,151.5625,317.9531,155.5625,307.9531,159.5625,311.9531,155.5625" style="stroke:#181818;stroke-width:1.0;"/><line style="stroke:#181818;stroke-width:1.0;" x1="35.5557" x2="313.9531" y1="155.5625" y2="155.5625"/><text fill="#000000" font-family="sans-serif" font-size="13" lengthAdjust="spacing" textLength="126.2231" x="42.5557" y="150.4966">Upload Assignment</text><polygon fill="#181818" points="46.5557,180.6953,36.5557,184.6953,46.5557,188.6953,42.5557,184.6953" style="stroke:#181818;stroke-width:1.0;"/><line style="stroke:#181818;stroke-width:1.0;stroke-dasharray:2.0,2.0;" x1="40.5557" x2="318.9531" y1="184.6953" y2="184.6953"/><text fill="#000000" font-family="sans-serif" font-size="13" lengthAdjust="spacing" textLength="101.1499" x="52.5557" y="179.6294">Confirm Upload</text><polygon fill="#181818" points="307.9531,209.8281,317.9531,213.8281,307.9531,217.8281,311.9531,213.8281" style="stroke:#181818;stroke-width:1.0;"/><line style="stroke:#181818;stroke-width:1.0;" x1="35.5557" x2="313.9531" y1="213.8281" y2="213.8281"/><text fill="#000000" font-family="sans-serif" font-size="13" lengthAdjust="spacing" textLength="126.7881" x="42.5557" y="208.7622">Submit Assignment</text><polygon fill="#181818" points="46.5557,238.9609,36.5557,242.9609,46.5557,246.9609,42.5557,242.9609" style="stroke:#181818;stroke-width:1.0;"/><line style="stroke:#181818;stroke-width:1.0;stroke-dasharray:2.0,2.0;" x1="40.5557" x2="318.9531" y1="242.9609" y2="242.9609"/><text fill="#000000" font-family="sans-serif" font-size="13" lengthAdjust="spacing" textLength="129.9683" x="52.5557" y="237.895">Confirm Submission</text><polygon fill="#181818" points="307.9531,268.0938,317.9531,272.0938,307.9531,276.0938,311.9531,272.0938" style="stroke:#181818;stroke-width:1.0;"/><line style="stroke:#181818;stroke-width:1.0;" x1="35.5557" x2="313.9531" y1="272.0938" y2="272.0938"/><text fill="#000000" font-family="sans-serif" font-size="13" lengthAdjust="spacing" textLength="123.3857" x="42.5557" y="267.0278">Delete Assignment</text><polygon fill="#181818" points="46.5557,297.2266,36.5557,301.2266,46.5557,305.2266,42.5557,301.2266" style="stroke:#181818;stroke-width:1.0;"/><line style="stroke:#181818;stroke-width:1.0;stroke-dasharray:2.0,2.0;" x1="40.5557" x2="318.9531" y1="301.2266" y2="301.2266"/><text fill="#000000" font-family="sans-serif" font-size="13" lengthAdjust="spacing" textLength="110.1191" x="52.5557" y="296.1606">Confirm Deletion</text><polygon fill="#181818" points="307.9531,326.3594,317.9531,330.3594,307.9531,334.3594,311.9531,330.3594" style="stroke:#181818;stroke-width:1.0;"/><line style="stroke:#181818;stroke-width:1.0;" x1="35.5557" x2="313.9531" y1="330.3594" y2="330.3594"/><text fill="#000000" font-family="sans-serif" font-size="13" lengthAdjust="spacing" textLength="166.2197" x="42.5557" y="325.2935">Check Assignment Status</text><polygon fill="#181818" points="46.5557,355.4922,36.5557,359.4922,46.5557,363.4922,42.5557,359.4922" style="stroke:#181818;stroke-width:1.0;"/><line style="stroke:#181818;stroke-width:1.0;stroke-dasharray:2.0,2.0;" x1="40.5557" x2="318.9531" y1="359.4922" y2="359.4922"/><text fill="#000000" font-family="sans-serif" font-size="13" lengthAdjust="spacing" textLength="174.1479" x="52.5557" y="354.4263">Display Assignment Status</text><polygon fill="#181818" points="307.9531,384.625,317.9531,388.625,307.9531,392.625,311.9531,388.625" style="stroke:#181818;stroke-width:1.0;"/><line style="stroke:#181818;stroke-width:1.0;" x1="35.5557" x2="313.9531" y1="388.625" y2="388.625"/><text fill="#000000" font-family="sans-serif" font-size="13" lengthAdjust="spacing" textLength="161.4907" x="42.5557" y="383.5591">Check Assignment Score</text><polygon fill="#181818" points="46.5557,413.7578,36.5557,417.7578,46.5557,421.7578,42.5557,417.7578" style="stroke:#181818;stroke-width:1.0;"/><line style="stroke:#181818;stroke-width:1.0;stroke-dasharray:2.0,2.0;" x1="40.5557" x2="318.9531" y1="417.7578" y2="417.7578"/><text fill="#000000" font-family="sans-serif" font-size="13" lengthAdjust="spacing" textLength="169.4189" x="52.5557" y="412.6919">Display Assignment Score</text><rect fill="#EEEEEE" height="3" style="stroke:#EEEEEE;stroke-width:1.0;" width="1147.4858" x="0" y="446.3242"/><line style="stroke:#000000;stroke-width:1.0;" x1="0" x2="1147.4858" y1="446.3242" y2="446.3242"/><line style="stroke:#000000;stroke-width:1.0;" x1="0" x2="1147.4858" y1="449.3242" y2="449.3242"/><rect fill="#EEEEEE" height="23.1328" style="stroke:#000000;stroke-width:2.0;" width="120.4565" x="513.5146" y="435.7578"/><text fill="#000000" font-family="sans-serif" font-size="13" font-weight="bold" lengthAdjust="spacing" textLength="101.9307" x="519.5146" y="451.8247">Student: Chat</text><polygon fill="#181818" points="445.6621,486.0234,455.6621,490.0234,445.6621,494.0234,449.6621,490.0234" style="stroke:#181818;stroke-width:1.0;"/><line style="stroke:#181818;stroke-width:1.0;" x1="35.5557" x2="451.6621" y1="490.0234" y2="490.0234"/><text fill="#000000" font-family="sans-serif" font-size="13" lengthAdjust="spacing" textLength="113.9214" x="42.5557" y="484.9575">Chat with Friends</text><polygon fill="#181818" points="46.5557,515.1563,36.5557,519.1563,46.5557,523.1563,42.5557,519.1563" style="stroke:#181818;stroke-width:1.0;"/><line style="stroke:#181818;stroke-width:1.0;stroke-dasharray:2.0,2.0;" x1="40.5557" x2="456.6621" y1="519.1563" y2="519.1563"/><text fill="#000000" font-family="sans-serif" font-size="13" lengthAdjust="spacing" textLength="144.041" x="52.5557" y="514.0903">Display Friend's Reply</text><polygon fill="#181818" points="445.6621,544.2891,455.6621,548.2891,445.6621,552.2891,449.6621,548.2891" style="stroke:#181818;stroke-width:1.0;"/><line style="stroke:#181818;stroke-width:1.0;" x1="35.5557" x2="451.6621" y1="548.2891" y2="548.2891"/><text fill="#000000" font-family="sans-serif" font-size="13" lengthAdjust="spacing" textLength="126.7817" x="42.5557" y="543.2231">Chat with Professor</text><polygon fill="#181818" points="118.4531,573.4219,108.4531,577.4219,118.4531,581.4219,114.4531,577.4219" style="stroke:#181818;stroke-width:1.0;"/><line style="stroke:#181818;stroke-width:1.0;" x1="112.4531" x2="456.6621" y1="577.4219" y2="577.4219"/><text fill="#000000" font-family="sans-serif" font-size="13" lengthAdjust="spacing" textLength="103.3462" x="124.4531" y="572.356">Notify Professor</text><polygon fill="#181818" points="445.6621,602.5547,455.6621,606.5547,445.6621,610.5547,449.6621,606.5547" style="stroke:#181818;stroke-width:1.0;"/><line style="stroke:#181818;stroke-width:1.0;" x1="107.4531" x2="451.6621" y1="606.5547" y2="606.5547"/><text fill="#000000" font-family="sans-serif" font-size="13" lengthAdjust="spacing" textLength="109.0781" x="114.4531" y="601.4888">Reply to Student</text><polygon fill="#181818" points="46.5557,631.6875,36.5557,635.6875,46.5557,639.6875,42.5557,635.6875" style="stroke:#181818;stroke-width:1.0;"/><line style="stroke:#181818;stroke-width:1.0;stroke-dasharray:2.0,2.0;" x1="40.5557" x2="456.6621" y1="635.6875" y2="635.6875"/><text fill="#000000" font-family="sans-serif" font-size="13" lengthAdjust="spacing" textLength="163.6743" x="52.5557" y="630.6216">Display Professor's Reply</text><rect fill="#EEEEEE" height="3" style="stroke:#EEEEEE;stroke-width:1.0;" width="1147.4858" x="0" y="664.2539"/><line style="stroke:#000000;stroke-width:1.0;" x1="0" x2="1147.4858" y1="664.2539" y2="664.2539"/><line style="stroke:#000000;stroke-width:1.0;" x1="0" x2="1147.4858" y1="667.2539" y2="667.2539"/><rect fill="#EEEEEE" height="23.1328" style="stroke:#000000;stroke-width:2.0;" width="214.2114" x="466.6372" y="653.6875"/><text fill="#000000" font-family="sans-serif" font-size="13" font-weight="bold" lengthAdjust="spacing" textLength="195.6855" x="472.6372" y="669.7544">Student: Personal AI Tutor</text><polygon fill="#181818" points="566.9512,703.9531,576.9512,707.9531,566.9512,711.9531,570.9512,707.9531" style="stroke:#181818;stroke-width:1.0;"/><line style="stroke:#181818;stroke-width:1.0;" x1="35.5557" x2="572.9512" y1="707.9531" y2="707.9531"/><text fill="#000000" font-family="sans-serif" font-size="13" lengthAdjust="spacing" textLength="165.9341" x="42.5557" y="702.8872">Request Tutoring Session</text><polygon fill="#181818" points="46.5557,733.0859,36.5557,737.0859,46.5557,741.0859,42.5557,737.0859" style="stroke:#181818;stroke-width:1.0;"/><line style="stroke:#181818;stroke-width:1.0;stroke-dasharray:2.0,2.0;" x1="40.5557" x2="577.9512" y1="737.0859" y2="737.0859"/><text fill="#000000" font-family="sans-serif" font-size="13" lengthAdjust="spacing" textLength="161.2368" x="52.5557" y="732.02">Provide Tutoring Session</text><rect fill="#EEEEEE" height="3" style="stroke:#EEEEEE;stroke-width:1.0;" width="1147.4858" x="0" y="765.6523"/><line style="stroke:#000000;stroke-width:1.0;" x1="0" x2="1147.4858" y1="765.6523" y2="765.6523"/><line style="stroke:#000000;stroke-width:1.0;" x1="0" x2="1147.4858" y1="768.6523" y2="768.6523"/><rect fill="#EEEEEE" height="23.1328" style="stroke:#000000;stroke-width:2.0;" width="203.6616" x="471.9121" y="755.0859"/><text fill="#000000" font-family="sans-serif" font-size="13" font-weight="bold" lengthAdjust="spacing" textLength="185.1357" x="477.9121" y="771.1528">Student: Visual Elements</text><polygon fill="#181818" points="731.4365,805.3516,741.4365,809.3516,731.4365,813.3516,735.4365,809.3516" style="stroke:#181818;stroke-width:1.0;"/><line style="stroke:#181818;stroke-width:1.0;" x1="35.5557" x2="737.4365" y1="809.3516" y2="809.3516"/><text fill="#000000" font-family="sans-serif" font-size="13" lengthAdjust="spacing" textLength="159.4087" x="42.5557" y="804.2856">View Assignment Scores</text><polygon fill="#181818" points="46.5557,834.4844,36.5557,838.4844,46.5557,842.4844,42.5557,838.4844" style="stroke:#181818;stroke-width:1.0;"/><line style="stroke:#181818;stroke-width:1.0;stroke-dasharray:2.0,2.0;" x1="40.5557" x2="742.4365" y1="838.4844" y2="838.4844"/><text fill="#000000" font-family="sans-serif" font-size="13" lengthAdjust="spacing" textLength="139.5278" x="52.5557" y="833.4185">Display Scores Graph</text><polygon fill="#181818" points="731.4365,863.6172,741.4365,867.6172,731.4365,871.6172,735.4365,867.6172" style="stroke:#181818;stroke-width:1.0;"/><line style="stroke:#181818;stroke-width:1.0;" x1="35.5557" x2="737.4365" y1="867.6172" y2="867.6172"/><text fill="#000000" font-family="sans-serif" font-size="13" lengthAdjust="spacing" textLength="99.728" x="42.5557" y="862.5513">View Deadlines</text><polygon fill="#181818" points="46.5557,892.75,36.5557,896.75,46.5557,900.75,42.5557,896.75" style="stroke:#181818;stroke-width:1.0;"/><line style="stroke:#181818;stroke-width:1.0;stroke-dasharray:2.0,2.0;" x1="40.5557" x2="742.4365" y1="896.75" y2="896.75"/><text fill="#000000" font-family="sans-serif" font-size="13" lengthAdjust="spacing" textLength="116.5112" x="52.5557" y="891.6841">Display Deadlines</text><polygon fill="#181818" points="731.4365,921.8828,741.4365,925.8828,731.4365,929.8828,735.4365,925.8828" style="stroke:#181818;stroke-width:1.0;"/><line style="stroke:#181818;stroke-width:1.0;" x1="35.5557" x2="737.4365" y1="925.8828" y2="925.8828"/><text fill="#000000" font-family="sans-serif" font-size="13" lengthAdjust="spacing" textLength="138.8296" x="42.5557" y="920.8169">View All Assignments</text><polygon fill="#181818" points="46.5557,951.0156,36.5557,955.0156,46.5557,959.0156,42.5557,955.0156" style="stroke:#181818;stroke-width:1.0;"/><line style="stroke:#181818;stroke-width:1.0;stroke-dasharray:2.0,2.0;" x1="40.5557" x2="742.4365" y1="955.0156" y2="955.0156"/><text fill="#000000" font-family="sans-serif" font-size="13" lengthAdjust="spacing" textLength="135.3638" x="52.5557" y="949.9497">Display Assignments</text><polygon fill="#181818" points="731.4365,980.1484,741.4365,984.1484,731.4365,988.1484,735.4365,984.1484" style="stroke:#181818;stroke-width:1.0;"/><line style="stroke:#181818;stroke-width:1.0;" x1="35.5557" x2="737.4365" y1="984.1484" y2="984.1484"/><text fill="#000000" font-family="sans-serif" font-size="13" lengthAdjust="spacing" textLength="103.7651" x="42.5557" y="979.0825">Add Sticky Note</text><polygon fill="#181818" points="46.5557,1009.2813,36.5557,1013.2813,46.5557,1017.2813,42.5557,1013.2813" style="stroke:#181818;stroke-width:1.0;"/><line style="stroke:#181818;stroke-width:1.0;stroke-dasharray:2.0,2.0;" x1="40.5557" x2="742.4365" y1="1013.2813" y2="1013.2813"/><text fill="#000000" font-family="sans-serif" font-size="13" lengthAdjust="spacing" textLength="175.6143" x="52.5557" y="1008.2153">Confirm Sticky Note Added</text><rect fill="#EEEEEE" height="3" style="stroke:#EEEEEE;stroke-width:1.0;" width="1147.4858" x="0" y="1041.8477"/><line style="stroke:#000000;stroke-width:1.0;" x1="0" x2="1147.4858" y1="1041.8477" y2="1041.8477"/><line style="stroke:#000000;stroke-width:1.0;" x1="0" x2="1147.4858" y1="1044.8477" y2="1044.8477"/><rect fill="#EEEEEE" height="23.1328" style="stroke:#000000;stroke-width:2.0;" width="180.3403" x="483.5728" y="1031.2813"/><text fill="#000000" font-family="sans-serif" font-size="13" font-weight="bold" lengthAdjust="spacing" textLength="161.8145" x="489.5728" y="1047.3481">Student: Notifications</text><polygon fill="#181818" points="906.7124,1081.5469,916.7124,1085.5469,906.7124,1089.5469,910.7124,1085.5469" style="stroke:#181818;stroke-width:1.0;"/><line style="stroke:#181818;stroke-width:1.0;" x1="35.5557" x2="912.7124" y1="1085.5469" y2="1085.5469"/><text fill="#000000" font-family="sans-serif" font-size="13" lengthAdjust="spacing" textLength="116.6318" x="42.5557" y="1080.481">View Notifications</text><polygon fill="#181818" points="46.5557,1110.6797,36.5557,1114.6797,46.5557,1118.6797,42.5557,1114.6797" style="stroke:#181818;stroke-width:1.0;"/><line style="stroke:#181818;stroke-width:1.0;stroke-dasharray:2.0,2.0;" x1="40.5557" x2="917.7124" y1="1114.6797" y2="1114.6797"/><text fill="#000000" font-family="sans-serif" font-size="13" lengthAdjust="spacing" textLength="133.415" x="52.5557" y="1109.6138">Display Notifications</text><rect fill="#EEEEEE" height="3" style="stroke:#EEEEEE;stroke-width:1.0;" width="1147.4858" x="0" y="1143.2461"/><line style="stroke:#000000;stroke-width:1.0;" x1="0" x2="1147.4858" y1="1143.2461" y2="1143.2461"/><line style="stroke:#000000;stroke-width:1.0;" x1="0" x2="1147.4858" y1="1146.2461" y2="1146.2461"/><rect fill="#EEEEEE" height="23.1328" style="stroke:#000000;stroke-width:2.0;" width="162.0972" x="492.6943" y="1132.6797"/><text fill="#000000" font-family="sans-serif" font-size="13" font-weight="bold" lengthAdjust="spacing" textLength="143.5713" x="498.6943" y="1148.7466">Student: Resources</text><polygon fill="#181818" points="1060.2329,1182.9453,1070.2329,1186.9453,1060.2329,1190.9453,1064.2329,1186.9453" style="stroke:#181818;stroke-width:1.0;"/><line style="stroke:#181818;stroke-width:1.0;" x1="35.5557" x2="1066.2329" y1="1186.9453" y2="1186.9453"/><text fill="#000000" font-family="sans-serif" font-size="13" lengthAdjust="spacing" textLength="95.7544" x="42.5557" y="1181.8794">View Resource</text><polygon fill="#181818" points="46.5557,1212.0781,36.5557,1216.0781,46.5557,1220.0781,42.5557,1216.0781" style="stroke:#181818;stroke-width:1.0;"/><line style="stroke:#181818;stroke-width:1.0;stroke-dasharray:2.0,2.0;" x1="40.5557" x2="1071.2329" y1="1216.0781" y2="1216.0781"/><text fill="#000000" font-family="sans-serif" font-size="13" lengthAdjust="spacing" textLength="112.5376" x="52.5557" y="1211.0122">Display Resource</text><polygon fill="#181818" points="1060.2329,1241.2109,1070.2329,1245.2109,1060.2329,1249.2109,1064.2329,1245.2109" style="stroke:#181818;stroke-width:1.0;"/><line style="stroke:#181818;stroke-width:1.0;" x1="35.5557" x2="1066.2329" y1="1245.2109" y2="1245.2109"/><text fill="#000000" font-family="sans-serif" font-size="13" lengthAdjust="spacing" textLength="129.2383" x="42.5557" y="1240.145">Download Resource</text><polygon fill="#181818" points="46.5557,1270.3438,36.5557,1274.3438,46.5557,1278.3438,42.5557,1274.3438" style="stroke:#181818;stroke-width:1.0;"/><line style="stroke:#181818;stroke-width:1.0;stroke-dasharray:2.0,2.0;" x1="40.5557" x2="1071.2329" y1="1274.3438" y2="1274.3438"/><text fill="#000000" font-family="sans-serif" font-size="13" lengthAdjust="spacing" textLength="120.2183" x="52.5557" y="1269.2778">Confirm Download</text><rect fill="#EEEEEE" height="3" style="stroke:#EEEEEE;stroke-width:1.0;" width="1147.4858" x="0" y="1302.9102"/><line style="stroke:#000000;stroke-width:1.0;" x1="0" x2="1147.4858" y1="1302.9102" y2="1302.9102"/><line style="stroke:#000000;stroke-width:1.0;" x1="0" x2="1147.4858" y1="1305.9102" y2="1305.9102"/><rect fill="#EEEEEE" height="23.1328" style="stroke:#000000;stroke-width:2.0;" width="257.604" x="444.9409" y="1292.3438"/><text fill="#000000" font-family="sans-serif" font-size="13" font-weight="bold" lengthAdjust="spacing" textLength="239.0781" x="450.9409" y="1308.4106">Teacher: Managing Assignments</text><polygon fill="#181818" points="307.9531,1342.6094,317.9531,1346.6094,307.9531,1350.6094,311.9531,1346.6094" style="stroke:#181818;stroke-width:1.0;"/><line style="stroke:#181818;stroke-width:1.0;" x1="107.4531" x2="313.9531" y1="1346.6094" y2="1346.6094"/><text fill="#000000" font-family="sans-serif" font-size="13" lengthAdjust="spacing" textLength="188.5" x="114.4531" y="1341.5435">Upload Assignment Question</text><polygon fill="#181818" points="118.4531,1371.7422,108.4531,1375.7422,118.4531,1379.7422,114.4531,1375.7422" style="stroke:#181818;stroke-width:1.0;"/><line style="stroke:#181818;stroke-width:1.0;stroke-dasharray:2.0,2.0;" x1="112.4531" x2="318.9531" y1="1375.7422" y2="1375.7422"/><text fill="#000000" font-family="sans-serif" font-size="13" lengthAdjust="spacing" textLength="101.1499" x="124.4531" y="1370.6763">Confirm Upload</text><polygon fill="#181818" points="307.9531,1400.875,317.9531,1404.875,307.9531,1408.875,311.9531,1404.875" style="stroke:#181818;stroke-width:1.0;"/><line style="stroke:#181818;stroke-width:1.0;" x1="107.4531" x2="313.9531" y1="1404.875" y2="1404.875"/><text fill="#000000" font-family="sans-serif" font-size="13" lengthAdjust="spacing" textLength="185.6626" x="114.4531" y="1399.8091">Delete Assignment Question</text><polygon fill="#181818" points="118.4531,1430.0078,108.4531,1434.0078,118.4531,1438.0078,114.4531,1434.0078" style="stroke:#181818;stroke-width:1.0;"/><line style="stroke:#181818;stroke-width:1.0;stroke-dasharray:2.0,2.0;" x1="112.4531" x2="318.9531" y1="1434.0078" y2="1434.0078"/><text fill="#000000" font-family="sans-serif" font-size="13" lengthAdjust="spacing" textLength="110.1191" x="124.4531" y="1428.9419">Confirm Deletion</text><polygon fill="#181818" points="307.9531,1459.1406,317.9531,1463.1406,307.9531,1467.1406,311.9531,1463.1406" style="stroke:#181818;stroke-width:1.0;"/><line style="stroke:#181818;stroke-width:1.0;" x1="107.4531" x2="313.9531" y1="1463.1406" y2="1463.1406"/><text fill="#000000" font-family="sans-serif" font-size="13" lengthAdjust="spacing" textLength="108.3354" x="114.4531" y="1458.0747">Post Assignment</text><polygon fill="#181818" points="118.4531,1488.2734,108.4531,1492.2734,118.4531,1496.2734,114.4531,1492.2734" style="stroke:#181818;stroke-width:1.0;"/><line style="stroke:#181818;stroke-width:1.0;stroke-dasharray:2.0,2.0;" x1="112.4531" x2="318.9531" y1="1492.2734" y2="1492.2734"/><text fill="#000000" font-family="sans-serif" font-size="13" lengthAdjust="spacing" textLength="83.2622" x="124.4531" y="1487.2075">Confirm Post</text><polygon fill="#181818" points="307.9531,1517.4063,317.9531,1521.4063,307.9531,1525.4063,311.9531,1521.4063" style="stroke:#181818;stroke-width:1.0;"/><line style="stroke:#181818;stroke-width:1.0;" x1="107.4531" x2="313.9531" y1="1521.4063" y2="1521.4063"/><text fill="#000000" font-family="sans-serif" font-size="13" lengthAdjust="spacing" textLength="175.9697" x="114.4531" y="1516.3403">Check Student Assignment</text><polygon fill="#181818" points="118.4531,1546.5391,108.4531,1550.5391,118.4531,1554.5391,114.4531,1550.5391" style="stroke:#181818;stroke-width:1.0;"/><line style="stroke:#181818;stroke-width:1.0;stroke-dasharray:2.0,2.0;" x1="112.4531" x2="318.9531" y1="1550.5391" y2="1550.5391"/><text fill="#000000" font-family="sans-serif" font-size="13" lengthAdjust="spacing" textLength="128.5908" x="124.4531" y="1545.4731">Display Assignment</text><polygon fill="#181818" points="307.9531,1575.6719,317.9531,1579.6719,307.9531,1583.6719,311.9531,1579.6719" style="stroke:#181818;stroke-width:1.0;"/><line style="stroke:#181818;stroke-width:1.0;" x1="107.4531" x2="313.9531" y1="1579.6719" y2="1579.6719"/><text fill="#000000" font-family="sans-serif" font-size="13" lengthAdjust="spacing" textLength="117.3682" x="114.4531" y="1574.606">Score Assignment</text><polygon fill="#181818" points="118.4531,1604.8047,108.4531,1608.8047,118.4531,1612.8047,114.4531,1608.8047" style="stroke:#181818;stroke-width:1.0;"/><line style="stroke:#181818;stroke-width:1.0;stroke-dasharray:2.0,2.0;" x1="112.4531" x2="318.9531" y1="1608.8047" y2="1608.8047"/><text fill="#000000" font-family="sans-serif" font-size="13" lengthAdjust="spacing" textLength="170.7964" x="124.4531" y="1603.7388">Confirm Score Submission</text><rect fill="#EEEEEE" height="3" style="stroke:#EEEEEE;stroke-width:1.0;" width="1147.4858" x="0" y="1637.3711"/><line style="stroke:#000000;stroke-width:1.0;" x1="0" x2="1147.4858" y1="1637.3711" y2="1637.3711"/><line style="stroke:#000000;stroke-width:1.0;" x1="0" x2="1147.4858" y1="1640.3711" y2="1640.3711"/><rect fill="#EEEEEE" height="23.1328" style="stroke:#000000;stroke-width:2.0;" width="120.6787" x="513.4036" y="1626.8047"/><text fill="#000000" font-family="sans-serif" font-size="13" font-weight="bold" lengthAdjust="spacing" textLength="102.1528" x="519.4036" y="1642.8716">Teacher: Chat</text><polygon fill="#181818" points="445.6621,1677.0703,455.6621,1681.0703,445.6621,1685.0703,449.6621,1681.0703" style="stroke:#181818;stroke-width:1.0;"/><line style="stroke:#181818;stroke-width:1.0;" x1="107.4531" x2="451.6621" y1="1681.0703" y2="1681.0703"/><text fill="#000000" font-family="sans-serif" font-size="13" lengthAdjust="spacing" textLength="117.3999" x="114.4531" y="1676.0044">Chat with Student</text><polygon fill="#181818" points="46.5557,1706.2031,36.5557,1710.2031,46.5557,1714.2031,42.5557,1710.2031" style="stroke:#181818;stroke-width:1.0;"/><line style="stroke:#181818;stroke-width:1.0;" x1="40.5557" x2="456.6621" y1="1710.2031" y2="1710.2031"/><text fill="#000000" font-family="sans-serif" font-size="13" lengthAdjust="spacing" textLength="93.9644" x="52.5557" y="1705.1372">Notify Student</text><polygon fill="#181818" points="445.6621,1735.3359,455.6621,1739.3359,445.6621,1743.3359,449.6621,1739.3359" style="stroke:#181818;stroke-width:1.0;"/><line style="stroke:#181818;stroke-width:1.0;" x1="35.5557" x2="451.6621" y1="1739.3359" y2="1739.3359"/><text fill="#000000" font-family="sans-serif" font-size="13" lengthAdjust="spacing" textLength="110.5381" x="42.5557" y="1734.27">Reply to Teacher</text><polygon fill="#181818" points="118.4531,1764.4688,108.4531,1768.4688,118.4531,1772.4688,114.4531,1768.4688" style="stroke:#181818;stroke-width:1.0;"/><line style="stroke:#181818;stroke-width:1.0;stroke-dasharray:2.0,2.0;" x1="112.4531" x2="456.6621" y1="1768.4688" y2="1768.4688"/><text fill="#000000" font-family="sans-serif" font-size="13" lengthAdjust="spacing" textLength="154.2925" x="124.4531" y="1763.4028">Display Student's Reply</text><rect fill="#EEEEEE" height="3" style="stroke:#EEEEEE;stroke-width:1.0;" width="1147.4858" x="0" y="1797.0352"/><line style="stroke:#000000;stroke-width:1.0;" x1="0" x2="1147.4858" y1="1797.0352" y2="1797.0352"/><line style="stroke:#000000;stroke-width:1.0;" x1="0" x2="1147.4858" y1="1800.0352" y2="1800.0352"/><rect fill="#EEEEEE" height="23.1328" style="stroke:#000000;stroke-width:2.0;" width="180.5625" x="483.4617" y="1786.4688"/><text fill="#000000" font-family="sans-serif" font-size="13" font-weight="bold" lengthAdjust="spacing" textLength="162.0366" x="489.4617" y="1802.5356">Teacher: Notifications</text><polygon fill="#181818" points="906.7124,1836.7344,916.7124,1840.7344,906.7124,1844.7344,910.7124,1840.7344" style="stroke:#181818;stroke-width:1.0;"/><line style="stroke:#181818;stroke-width:1.0;" x1="107.4531" x2="912.7124" y1="1840.7344" y2="1840.7344"/><text fill="#000000" font-family="sans-serif" font-size="13" lengthAdjust="spacing" textLength="111.4648" x="114.4531" y="1835.6685">Send Notification</text><polygon fill="#181818" points="118.4531,1865.8672,108.4531,1869.8672,118.4531,1873.8672,114.4531,1869.8672" style="stroke:#181818;stroke-width:1.0;"/><line style="stroke:#181818;stroke-width:1.0;stroke-dasharray:2.0,2.0;" x1="112.4531" x2="917.7124" y1="1869.8672" y2="1869.8672"/><text fill="#000000" font-family="sans-serif" font-size="13" lengthAdjust="spacing" textLength="163.9092" x="124.4531" y="1864.8013">Confirm Notification Sent</text><rect fill="#EEEEEE" height="3" style="stroke:#EEEEEE;stroke-width:1.0;" width="1147.4858" x="0" y="1898.4336"/><line style="stroke:#000000;stroke-width:1.0;" x1="0" x2="1147.4858" y1="1898.4336" y2="1898.4336"/><line style="stroke:#000000;stroke-width:1.0;" x1="0" x2="1147.4858" y1="1901.4336" y2="1901.4336"/><rect fill="#EEEEEE" height="23.1328" style="stroke:#000000;stroke-width:2.0;" width="162.3193" x="492.5833" y="1887.8672"/><text fill="#000000" font-family="sans-serif" font-size="13" font-weight="bold" lengthAdjust="spacing" textLength="143.7935" x="498.5833" y="1903.9341">Teacher: Resources</text><polygon fill="#181818" points="1060.2329,1938.1328,1070.2329,1942.1328,1060.2329,1946.1328,1064.2329,1942.1328" style="stroke:#181818;stroke-width:1.0;"/><line style="stroke:#181818;stroke-width:1.0;" x1="107.4531" x2="1066.2329" y1="1942.1328" y2="1942.1328"/><text fill="#000000" font-family="sans-serif" font-size="13" lengthAdjust="spacing" textLength="110.1699" x="114.4531" y="1937.0669">Upload Resource</text><polygon fill="#181818" points="118.4531,1967.2656,108.4531,1971.2656,118.4531,1975.2656,114.4531,1971.2656" style="stroke:#181818;stroke-width:1.0;"/><line style="stroke:#181818;stroke-width:1.0;stroke-dasharray:2.0,2.0;" x1="112.4531" x2="1071.2329" y1="1971.2656" y2="1971.2656"/><text fill="#000000" font-family="sans-serif" font-size="13" lengthAdjust="spacing" textLength="101.1499" x="124.4531" y="1966.1997">Confirm Upload</text><polygon fill="#181818" points="1060.2329,1996.3984,1070.2329,2000.3984,1060.2329,2004.3984,1064.2329,2000.3984" style="stroke:#181818;stroke-width:1.0;"/><line style="stroke:#181818;stroke-width:1.0;" x1="107.4531" x2="1066.2329" y1="2000.3984" y2="2000.3984"/><text fill="#000000" font-family="sans-serif" font-size="13" lengthAdjust="spacing" textLength="107.3325" x="114.4531" y="1995.3325">Delete Resource</text><polygon fill="#181818" points="118.4531,2025.5313,108.4531,2029.5313,118.4531,2033.5313,114.4531,2029.5313" style="stroke:#181818;stroke-width:1.0;"/><line style="stroke:#181818;stroke-width:1.0;stroke-dasharray:2.0,2.0;" x1="112.4531" x2="1071.2329" y1="2029.5313" y2="2029.5313"/><text fill="#000000" font-family="sans-serif" font-size="13" lengthAdjust="spacing" textLength="110.1191" x="124.4531" y="2024.4653">Confirm Deletion</text><polygon fill="#181818" points="1060.2329,2054.6641,1070.2329,2058.6641,1060.2329,2062.6641,1064.2329,2058.6641" style="stroke:#181818;stroke-width:1.0;"/><line style="stroke:#181818;stroke-width:1.0;" x1="107.4531" x2="1066.2329" y1="2058.6641" y2="2058.6641"/><text fill="#000000" font-family="sans-serif" font-size="13" lengthAdjust="spacing" textLength="140.1436" x="114.4531" y="2053.5981">Provide YouTube Link</text><polygon fill="#181818" points="118.4531,2083.7969,108.4531,2087.7969,118.4531,2091.7969,114.4531,2087.7969" style="stroke:#181818;stroke-width:1.0;"/><line style="stroke:#181818;stroke-width:1.0;stroke-dasharray:2.0,2.0;" x1="112.4531" x2="1071.2329" y1="2087.7969" y2="2087.7969"/><text fill="#000000" font-family="sans-serif" font-size="13" lengthAdjust="spacing" textLength="143.2983" x="124.4531" y="2082.731">Confirm Link Provided</text><rect fill="#EEEEEE" height="3" style="stroke:#EEEEEE;stroke-width:1.0;" width="1147.4858" x="0" y="2116.3633"/><line style="stroke:#000000;stroke-width:1.0;" x1="0" x2="1147.4858" y1="2116.3633" y2="2116.3633"/><line style="stroke:#000000;stroke-width:1.0;" x1="0" x2="1147.4858" y1="2119.3633" y2="2119.3633"/><rect fill="#EEEEEE" height="23.1328" style="stroke:#000000;stroke-width:2.0;" width="181.2861" x="483.0999" y="2105.7969"/><text fill="#000000" font-family="sans-serif" font-size="13" font-weight="bold" lengthAdjust="spacing" textLength="162.7603" x="489.0999" y="2121.8638">Teacher: Visualization</text><polygon fill="#181818" points="731.4365,2156.0625,741.4365,2160.0625,731.4365,2164.0625,735.4365,2160.0625" style="stroke:#181818;stroke-width:1.0;"/><line style="stroke:#181818;stroke-width:1.0;" x1="107.4531" x2="737.4365" y1="2160.0625" y2="2160.0625"/><text fill="#000000" font-family="sans-serif" font-size="13" lengthAdjust="spacing" textLength="200.04" x="114.4531" y="2154.9966">Visualize Student Performance</text><polygon fill="#181818" points="118.4531,2185.1953,108.4531,2189.1953,118.4531,2193.1953,114.4531,2189.1953" style="stroke:#181818;stroke-width:1.0;"/><line style="stroke:#181818;stroke-width:1.0;stroke-dasharray:2.0,2.0;" x1="112.4531" x2="742.4365" y1="2189.1953" y2="2189.1953"/><text fill="#000000" font-family="sans-serif" font-size="13" lengthAdjust="spacing" textLength="179.1309" x="124.4531" y="2184.1294">Display Performance Graph</text><!--SRC=[ZPR1Zfim48RlF8Mrbvxs1LPA94JQQgKIfP16wj4BayGAsDGsZUZJrpPWR0ER79Fvvf-nFVCdk92Ceros9L0POVFf2BYu0e-Y1dD92j9WAj5BB0Ivq5fXAQRu0lm5OO7YrAUIAvOfAziAJ3W9mWVWWb5SnU_7LfKop24- -j29Y1PNv1-MXD64rGsZggfXJucFxfaaPr8OCk-4XDfW-zp7CX2ivGMudMTf56qsuz7Va8aHUa7JGGNQRA81GAzRTTWtzAkf62uTA8fJzAg2LYXXz4nuFP1XVjv-r4G-asz8XJ4QQkoW0WdFQ1XoGI6vGd5p15GcbgsOwUo8Q2hSBP0F1Gl6uIaz0tfFeOSekFea7Rw-4tb5tpW1MeeeMP7lur_K8qDJTUiw1yxE80JZHcaxJluRCdFLEV4XCaeONIIPtPorJgo2RSOxwRWFA7v7PYE2OwlTqCN-j21a3-W9pQ4V2nNrgwfgVqa9Sz8hskyN-bh1qf2V4at0VVP68ZebouVim-WxnyrrKMe7kAm8_KHY8XPRgIftBLTLN2RGYSjIyQIuTVfnOIPXjsvYT0wK_jsvXXFUt3uVslMWQ9ylD-jJNfNHhy8AMJfK684eMvax2mJPEtQdni1M5Qnr3AJfp2x6caiw-x7eakYd7c4zYeCbMCN0BWEXcTKz5hAU5qWTc5ZotLc-viBStjx6k_n4P3w9ePHPbcVww47dLy1xYD4Z0sEQlCrrfcqmm9sD1jPeVMty3v2id6_8yrpDTqztIPmczPBaofmzQDoHsHsua4wJVY5lJvmYsJI2uPm_CNVPD7SFivU6JUUFJloRjSVs0z0FGc-h8ZeuPWJxvlqN2axPssCV1pkSwYVbp7YDQM5DRlPw3jExzdy0]--></g></svg>